:SAMPLES-PER-SECOND 30
:FULLY-SPECIFIED
:DEGREES
230
root  -15.0293 40.059 -1.1625 175.177 -87.302 174.22
RightUpLeg  -1.48186 -14.883 -4.26206
RightLeg  20.9388 0.863435 1.2116
RightFoot  -7.27723 0.0112387 -1.72616
RightToes  0.00048216 0.542163 -0.142577
Spine  15.5333 -0.487346 9.14196
Spine1  10.5161 1.75185 -2.77063
HEad  -17.7558 3.87332 -3.37046
LeftShoulder1  8.05848 -12.347 -44.2691
LeftArm  -6.08812 17.4126 -29.612
LeftForeArm  37.3092 -13.4431 -5.21278
LeftHand  -0.25398 0.0180481 5.50724
RightShoulder  4.76104 8.63599 33.2761
RightArm  0.532263 -7.87684 36.855
RightForeArm  -2.33946 27.1968 5.98302
RightHand  -2.36669 7.43259 -21.6008
LeftUpLeg  -12.3254 16.1886 1.45998
LeftLeg  29.2353 11.0226 6.92109
LeftFoot  -1.40787 0.294733 -3.30953
LeftToes  1.06247e-005 4.65855e-005 -8.18501e-006
231
root  -14.096 40.1038 -1.06458 174.281 -87.6205 175.537
RightUpLeg  -2.49413 -14.4096 -4.36785
RightLeg  19.1981 0.0518958 2.03955
RightFoot  -5.61397 -0.000389556 -0.768612
RightToes  0.00048216 0.542163 -0.142577
Spine  14.6226 -0.504612 9.23721
Spine1  9.84653 1.62891 -2.40435
HEad  -16.3706 3.72442 -3.78316
LeftShoulder1  8.07894 -12.4043 -44.2194
LeftArm  -5.63607 17.604 -29.3625
LeftForeArm  35.6864 -14.4824 -4.99165
LeftHand  -0.25398 0.0180481 5.50724
RightShoulder  4.69074 8.51595 33.0836
RightArm  3.24274 -10.6552 36.6468
RightForeArm  -1.81625 27.6181 6.05566
RightHand  -2.31394 7.27285 -21.393
LeftUpLeg  -10.8393 13.6833 1.91761
LeftLeg  35.0222 10.623 8.23575
LeftFoot  -3.38874 0.25174 -3.35529
LeftToes  1.06247e-005 4.65855e-005 -8.18501e-006
232
root  -13.1487 40.0739 -0.971302 167.513 -88.1364 -177.276
RightUpLeg  -3.66027 -13.929 -4.29141
RightLeg  17.8553 -0.851277 2.6428
RightFoot  -4.59014 -0.106299 1.27816
RightToes  0.00048216 0.542163 -0.142577
Spine  13.4078 -0.601336 8.86296
Spine1  9.83997 1.2142 -1.54321
HEad  -15.5147 3.88763 -4.14343
LeftShoulder1  8.06349 -12.3407 -44.3166
LeftArm  -5.00641 17.3059 -29.1655
LeftForeArm  33.9087 -15.9986 -4.62801
LeftHand  -0.25398 0.0180481 5.50724
RightShoulder  4.67775 8.501 33.0239
RightArm  5.88609 -13.1633 36.3679
RightForeArm  -1.16649 27.9227 6.09427
RightHand  -2.33277 7.35692 -21.4241
LeftUpLeg  -8.71517 11.5311 2.53041
LeftLeg  39.2898 9.32282 8.45041
LeftFoot  -5.06553 0.268887 -4.35352
LeftToes  1.06247e-005 4.65855e-005 -8.18501e-006
233
root  -12.1763 39.9866 -0.871472 143.242 -88.7357 -152.589
RightUpLeg  -5.04215 -13.7451 -4.03633
RightLeg  16.8933 -1.75472 3.0277
RightFoot  -3.90567 -0.258747 3.5709
RightToes  0.00048216 0.542163 -0.142577
Spine  12.1154 -0.872599 8.17675
Spine1  10.1562 0.487784 -0.400689
HEad  -15.0017 4.21127 -4.18404
LeftShoulder1  7.95656 -12.1253 -44.3308
LeftArm  -4.33877 16.5265 -29.1485
LeftForeArm  32.4605 -17.7851 -4.17514
LeftHand  -0.25398 0.0180481 5.50724
RightShoulder  4.66233 8.44899 33.0644
RightArm  8.25286 -15.4008 36.3311
RightForeArm  -1.14636 27.7832 6.05994
RightHand  -2.38973 7.53834 -21.6337
LeftUpLeg  -5.98845 9.53559 3.24673
LeftLeg  41.7819 8.35488 8.30122
LeftFoot  -6.57871 0.241078 -4.81327
LeftToes  1.06247e-005 4.65855e-005 -8.18501e-006
234
root  -11.1542 39.8472 -0.75892 94.0895 -88.8504 -103.124
RightUpLeg  -6.65073 -14.1797 -3.58913
RightLeg  16.3654 -2.45859 3.18537
RightFoot  -2.96335 -0.382296 4.94717
RightToes  0.00048216 0.542163 -0.142577
Spine  11.2437 -1.22607 7.42249
Spine1  10.1129 -0.303025 0.641824
HEad  -14.38 4.35514 -3.75912
LeftShoulder1  7.81113 -11.9477 -44.0049
LeftArm  -3.94617 15.5562 -29.454
LeftForeArm  31.7225 -19.633 -3.72617
LeftHand  -0.25398 0.0180481 5.50724
RightShoulder  4.62524 8.31995 33.1758
RightArm  9.75312 -17.8676 36.6703
RightForeArm  -1.6473 27.2195 5.95242
RightHand  -2.40437 7.57299 -21.7053
LeftUpLeg  -2.75057 7.88409 4.01769
LeftLeg  42.5456 8.04251 8.21444
LeftFoot  -7.86876 0.180035 -4.36414
LeftToes  1.06247e-005 4.65855e-005 -8.18501e-006
235
root  -10.0727 39.6703 -0.65021 59.8962 -88.2697 -68.7929
RightUpLeg  -8.36377 -15.1884 -3.05671
RightLeg  16.0934 -2.62231 3.13873
RightFoot  -1.57156 -0.462861 5.29407
RightToes  0.00048216 0.542163 -0.142577
Spine  10.8889 -1.47214 6.24582
Spine1  9.6686 -1.02397 1.74507
HEad  -13.6068 4.26363 -2.99154
LeftShoulder1  7.67544 -11.859 -43.4619
LeftArm  -4.19051 14.5536 -29.9508
LeftForeArm  31.8151 -21.7605 -3.39585
LeftHand  -0.25398 0.0180481 5.50724
RightShoulder  4.59517 8.21894 33.2558
RightArm  10.1093 -20.6059 37.419
RightForeArm  -2.18297 26.222 5.74713
RightHand  -2.37034 7.51656 -21.4998
LeftUpLeg  0.953954 6.65693 4.78557
LeftLeg  41.6975 7.57387 7.55438
LeftFoot  -8.92246 0.152776 -4.72104
LeftToes  1.06247e-005 4.65855e-005 -8.18501e-006
